<?xml version="1.0" encoding="UTF-8" standalone="no"?>
<svg
   width="64"
   height="64"
   version="1.1"
   viewBox="0 0 16.933 16.933"
   id="svg7"
   sodipodi:docname="io.github.flattool.Warehouse.svg"
   inkscape:version="1.4.4 (dcaf3e7d9e, 2026-05-05)"
   xmlns:inkscape="http://www.inkscape.org/namespaces/inkscape"
   xmlns:sodipodi="http://sodipodi.sourceforge.net/DTD/sodipodi-0.dtd"
   xmlns="http://www.w3.org/2000/svg"
   xmlns:svg="http://www.w3.org/2000/svg"
   xmlns:rdf="http://www.w3.org/1999/02/22-rdf-syntax-ns#"
   xmlns:cc="http://creativecommons.org/ns#"
   xmlns:dc="http://purl.org/dc/elements/1.1/">
  <sodipodi:namedview
     id="namedview7"
     pagecolor="#9c4444"
     bordercolor="#000000"
     borderopacity="0.25"
     inkscape:showpageshadow="2"
     inkscape:pageopacity="0.0"
     inkscape:pagecheckerboard="0"
     inkscape:deskcolor="#d1d1d1"
     inkscape:zoom="6.15625"
     inkscape:cx="16.081218"
     inkscape:cy="27.370558"
     inkscape:window-width="2560"
     inkscape:window-height="1392"
     inkscape:window-x="0"
     inkscape:window-y="0"
     inkscape:window-maximized="1"
     inkscape:current-layer="svg7"
     showgrid="false" />
  <defs
     id="defs2">
    <style
       id="current-color-scheme"
       type="text/css">.ColorScheme-Text {color:#d8dee9} .ColorScheme-Highlight {color:#3b4252}</style>
  </defs>
  <metadata
     id="metadata2">
    <rdf:RDF>
      <cc:Work
         rdf:about="">
        <dc:format>image/svg+xml</dc:format>
        <dc:type
           rdf:resource="http://purl.org/dc/dcmitype/StillImage" />
      </cc:Work>
    </rdf:RDF>
  </metadata>
  <path
     id="path5"
     style="fill:currentColor"
     d="m 3.2080089,1.4551797 c -0.647378,0 -1.1685529,0.521175 -1.1685529,1.168553 V 14.309267 c 0,0.647378 0.5211749,1.168553 1.1685529,1.168553 H 13.72499 c 0.647379,0 1.168554,-0.521175 1.168554,-1.168553 V 2.6237327 c 0,-0.647378 -0.521175,-1.168553 -1.168554,-1.168553 z m 0,1.168553 H 13.72499 v 5.258491 H 3.2080089 Z m 0.292139,1.168554 v 3.797798 h 5.988836 v -3.797798 z m 0.1460691,0.438207 h 2.9213839 v 0.730346 H 3.646217 Z m 6.1349049,0.730346 v 2.629245 h 3.6517291 v -2.629245 z m -6.134905,0.292138 h 2.191037 v 0.438208 h -2.191037 z m 6.4270441,0.14607 h 2.629245 v 0.730346 h -2.629245 z m 0,1.022484 h 1.75283 v 0.438207 h -1.75283 z M 3.2080089,8.9047077 H 13.72499 V 14.309267 H 3.2080089 Z m 4.236007,1.3146223 v 3.797799 H 13.432851 V 10.21933 Z m 0.438207,0.438208 h 2.9213831 v 0.730345 H 7.8822229 Z m -4.382075,0.730345 v 2.629246 h 3.651729 v -2.629246 z m 4.382075,0.292139 h 2.1910381 v 0.438207 H 7.8822229 Z m -4.089937,0.146069 h 2.629245 v 0.730346 h -2.629245 z m 0,1.022484 h 1.75283 v 0.438208 h -1.75283 z"
     class="ColorScheme-Text" />
</svg>
