<?xml version="1.0" encoding="UTF-8" standalone="no"?>
<svg
   width="64"
   height="64"
   version="1.1"
   viewBox="0 0 16.933 16.933"
   id="svg7"
   sodipodi:docname="io.gitlab.adhami3310.Converter.svg"
   inkscape:version="1.4.4 (dcaf3e7d9e, 2026-05-05)"
   xmlns:inkscape="http://www.inkscape.org/namespaces/inkscape"
   xmlns:sodipodi="http://sodipodi.sourceforge.net/DTD/sodipodi-0.dtd"
   xmlns="http://www.w3.org/2000/svg"
   xmlns:svg="http://www.w3.org/2000/svg"
   xmlns:rdf="http://www.w3.org/1999/02/22-rdf-syntax-ns#"
   xmlns:cc="http://creativecommons.org/ns#"
   xmlns:dc="http://purl.org/dc/elements/1.1/">
  <sodipodi:namedview
     id="namedview7"
     pagecolor="#9c4444"
     bordercolor="#000000"
     borderopacity="0.25"
     inkscape:showpageshadow="2"
     inkscape:pageopacity="0.0"
     inkscape:pagecheckerboard="0"
     inkscape:deskcolor="#d1d1d1"
     inkscape:zoom="17.412504"
     inkscape:cx="34.745145"
     inkscape:cy="29.892311"
     inkscape:window-width="2560"
     inkscape:window-height="1388"
     inkscape:window-x="0"
     inkscape:window-y="0"
     inkscape:window-maximized="1"
     inkscape:current-layer="svg7"
     showgrid="false" />
  <defs
     id="defs2">
    <style
       id="current-color-scheme"
       type="text/css">.ColorScheme-Text {color:#d8dee9} .ColorScheme-Highlight {color:#3b4252}</style>
  </defs>
  <metadata
     id="metadata2">
    <rdf:RDF>
      <cc:Work
         rdf:about="">
        <dc:format>image/svg+xml</dc:format>
        <dc:type
           rdf:resource="http://purl.org/dc/dcmitype/StillImage" />
      </cc:Work>
    </rdf:RDF>
  </metadata>
  <path
     id="path5"
     d="m 12.027497,1.4558994 c -0.08906,-0.00357 -0.180214,0.00608 -0.270819,0.030312 l -2.7975826,0.749621 h 3.9366166 l -0.0292,-0.1088586 C 12.761161,1.7343521 12.413416,1.4713822 12.027498,1.4558992 Z M 3.4820824,2.5756846 c -0.5004849,0 -0.9062715,0.4057866 -0.9062715,0.9062715 v 9.9689869 c 0,0.500485 0.4057866,0.906271 0.9062715,0.906271 h 9.9689866 c 0.500485,0 0.906271,-0.405786 0.906271,-0.906271 V 3.4819561 c 0,-0.5004849 -0.405786,-0.9062715 -0.906271,-0.9062715 z m 0.2265679,0.9062715 h 9.5158507 c 0.125232,0 0.226568,0.101336 0.226568,0.2265679 v 9.515851 c 0,0.125232 -0.101336,0.226568 -0.226568,0.226568 H 3.7086503 c -0.1252319,0 -0.2265679,-0.101336 -0.2265679,-0.226568 V 3.708524 c 0,-0.1252319 0.101336,-0.2265679 0.2265679,-0.2265679 z M 2.2359591,4.037313 2.1271002,4.066519 C 1.6438736,4.1961761 1.356681,4.6931208 1.486338,5.1763476 L 2.2359591,7.9739299 Z M 8.6634949,5.2951628 C 8.218256,5.2991528 7.7711312,5.396696 7.3525433,5.5918695 6.2363316,6.1123208 5.5211933,7.2347686 5.5211933,8.4664494 H 4.4334905 L 5.974329,10.392277 7.5151675,8.4664494 H 6.4274648 c 0,-0.8817727 0.5088592,-1.680727 1.3078542,-2.0532714 0.7989719,-0.3725331 1.738894,-0.2488322 2.414143,0.3175047 A 0.45313576,0.45313576 0 0 0 10.78779,6.6747047 0.45313576,0.45313576 0 0 0 10.73181,6.0363762 C 10.142142,5.5418136 9.4055601,5.2885233 8.6634949,5.2951628 Z m 2.2953271,1.2454596 -1.5408382,1.925827 h 1.0877022 c 0,0.8817728 -0.5088586,1.6807266 -1.3078539,2.0532716 -0.7989713,0.372533 -1.7388936,0.248832 -2.4141424,-0.317505 a 0.45313576,0.45313576 0 0 0 -0.6383284,0.05598 0.45313576,0.45313576 0 0 0 0.055978,0.638329 c 0.5896703,0.494562 1.3262518,0.747853 2.068317,0.741213 0.4452388,-0.004 0.8923637,-0.101533 1.3109517,-0.296707 C 10.69682,10.820578 11.411958,9.6981302 11.411958,8.4664494 h 1.087703 z m 3.73837,2.4183466 v 3.936617 l 0.108859,-0.0292 c 0.483227,-0.129657 0.769976,-0.626601 0.640762,-1.109828 z m -10.6597528,5.738097 0.029206,0.108859 c 0.1296571,0.483227 0.6266018,0.770419 1.1098285,0.640762 l 2.7975824,-0.749621 z"
     style="fill:currentColor"
     class="ColorScheme-Text" />
</svg>
