<?xml version="1.0" encoding="UTF-8" standalone="no"?>
<!-- Created with Inkscape (http://www.inkscape.org/) -->

<svg
   width="64"
   height="64"
   viewBox="0 0 16.933333 16.933333"
   version="1.1"
   id="svg896"
   inkscape:version="1.4.4 (dcaf3e7d9e, 2026-05-05)"
   sodipodi:docname="jami.svg"
   xmlns:inkscape="http://www.inkscape.org/namespaces/inkscape"
   xmlns:sodipodi="http://sodipodi.sourceforge.net/DTD/sodipodi-0.dtd"
   xmlns="http://www.w3.org/2000/svg"
   xmlns:svg="http://www.w3.org/2000/svg"
   xmlns:rdf="http://www.w3.org/1999/02/22-rdf-syntax-ns#"
   xmlns:cc="http://creativecommons.org/ns#"
   xmlns:dc="http://purl.org/dc/elements/1.1/">
  <defs
     id="defs890">
    <style
       id="current-color-scheme"
       type="text/css">.ColorScheme-Text {color:#d8dee9} .ColorScheme-Highlight {color:#7f7fff}</style>
  </defs>
  <sodipodi:namedview
     id="base"
     pagecolor="#7f3232"
     bordercolor="#666666"
     borderopacity="1.0"
     inkscape:pageopacity="0.0"
     inkscape:pageshadow="2"
     inkscape:zoom="9.861792"
     inkscape:cx="31.231646"
     inkscape:cy="17.542451"
     inkscape:document-units="px"
     inkscape:current-layer="svg896"
     showgrid="false"
     inkscape:window-width="2560"
     inkscape:window-height="1388"
     inkscape:window-x="0"
     inkscape:window-y="0"
     inkscape:window-maximized="1"
     inkscape:showpageshadow="0"
     inkscape:pagecheckerboard="0"
     inkscape:deskcolor="#505050" />
  <metadata
     id="metadata893">
    <rdf:RDF>
      <cc:Work
         rdf:about="">
        <dc:format>image/svg+xml</dc:format>
        <dc:type
           rdf:resource="http://purl.org/dc/dcmitype/StillImage" />
      </cc:Work>
    </rdf:RDF>
  </metadata>
  <path
     id="path5"
     style="fill:currentColor;stroke-width:0.999934"
     d="m 11.027174,1.4560096 c -0.484771,0.069648 -1.7986942,0.560609 -4.0563718,3.5349219 a 0.06549971,0.06549971 0 0 0 0.054683,0.1054617 c 0.4495035,-0.015532 0.9305874,-0.025389 1.4471697,-0.025389 0.5098636,0 1.2550211,0.029375 1.7869921,0.050778 a 0.06549971,0.06549971 0 0 0 0.06055,-0.03906 c 0.206583,-0.4588257 0.38248,-0.9004447 0.517537,-1.3163189 0.289444,-0.8912866 0.392813,-1.6586447 0.279278,-2.1814959 l -0.01563,-0.07812 a 0.06549971,0.06549971 0 0 0 -0.07422,-0.050778 z m -5.1090364,0.00586 a 0.06549971,0.06549971 0 0 0 -0.072261,0.050778 l -0.015624,0.072261 C 5.7511966,1.9500035 5.7976116,2.4362239 5.9532918,3.0125476 6.1088202,3.5883145 6.3700743,4.2509103 6.697383,4.967496 A 0.06549971,0.06549971 0 0 0 6.8087037,4.979214 L 6.8614347,4.908907 C 7.4029625,4.1954855 7.8937762,3.623177 8.3320401,3.1629277 a 0.06549971,0.06549971 0 0 0 -0.00195,-0.091791 C 7.0579332,1.7888014 6.2679318,1.5159501 5.9181376,1.4618696 Z m 0.03906,0.1523336 c 0.32848,0.060987 1.0524362,0.3347689 2.2342268,1.5116176 C 7.7652947,3.5768852 7.2950318,4.1245639 6.7755026,4.8073498 6.4747865,4.1394559 6.2243853,3.5129866 6.0802363,2.9793461 5.9279559,2.4156078 5.886064,1.9445803 5.9571976,1.6142032 Z m 5.0328704,0.00195 c 0.103263,0.4798758 0.0075,1.2320505 -0.277325,2.1092351 -0.129083,0.3974807 -0.299476,0.8236416 -0.496061,1.263588 -0.5287409,-0.021198 -1.2427569,-0.048825 -1.7440261,-0.048825 -0.4629308,0 -0.8875139,0.010879 -1.2967891,0.023436 C 9.2977187,2.2119969 10.53997,1.6933272 10.990067,1.6161553 Z M 4.6779856,8.607879 C 3.8788434,8.7320244 3.1534833,8.8975388 2.5531265,9.1019869 1.913034,9.319967 1.4178298,9.5842825 1.1254868,9.8695141 l -0.03906,0.041013 a 0.06549971,0.06549971 0 0 0 -0.00195,0.089837 c 0.3380212,0.362008 1.4571579,1.129522 5.0231014,1.371004 a 0.06549971,0.06549971 0 0 0 0.054683,-0.02149 c 0.040174,-0.04468 0.080116,-0.09025 0.1210857,-0.136709 l 0.041013,-0.04687 a 0.06549971,0.06549971 0 0 0 0.00195,-0.03516 c 0.00468,8.75e-4 0.013664,0.0039 0.013671,0.0039 3.13e-5,-1.64e-4 0.00195,-0.0097 0.00195,-0.0098 0,0 -0.010117,2.88e-4 -0.015624,0 a 0.06549971,0.06549971 0 0 0 0.00195,-0.04102 C 6.1291937,10.803032 5.9245745,10.5036 5.7130731,10.1859 5.4335797,9.7633276 5.0079013,9.078775 4.7443874,8.639127 A 0.06549971,0.06549971 0 0 0 4.6233017,8.672328 Z m 7.6264484,0.070307 a 0.06549971,0.06549971 0 0 0 -0.0039,0.00586 c -0.285879,0.4822175 -0.613832,1.0039214 -0.988223,1.566303 -0.158586,0.236166 -0.368919,0.563311 -0.521449,0.785104 l -0.03906,0.05859 a 0.06549971,0.06549971 0 0 0 0.0039,0.08007 c 0.367819,0.4209 0.736977,0.809661 1.095632,1.146409 0.37372,0.350893 0.735738,0.646465 1.072194,0.86713 0.336596,0.220755 0.647229,0.363709 0.908142,0.419894 l 0.06836,0.01563 a 0.06549971,0.06549971 0 0 0 0.07616,-0.04687 c 0.13132,-0.455874 0.205591,-1.788012 -1.562394,-4.8902991 a 0.06549971,0.06549971 0 0 0 -0.109367,-0.00781 z M 4.6565026,8.746541 c 0.2656802,0.4420262 0.6727073,1.0966031 0.9472028,1.511619 0.2021392,0.303636 0.3989309,0.588915 0.5898046,0.859318 l -0.00781,0.0078 C 6.153042,11.162308 6.120185,11.198768 6.08805,11.234645 2.6632291,10.997398 1.5776865,10.282671 1.2446195,9.9476339 1.5155542,9.6915055 1.9799391,9.4368064 2.5960924,9.2269786 3.1748847,9.0298742 3.881369,8.8689884 4.6565026,8.746541 Z m 8.0873554,0.029295 a 0.06549971,0.06549971 0 0 0 -0.07031,0.095697 c 0.442833,0.7979516 0.761811,1.477562 0.988216,2.052598 a 0.06549971,0.06549971 0 0 0 0.07616,0.03906 c 1.343366,-0.322878 1.902501,-0.72867 2.124859,-0.962827 a 0.06549971,0.06549971 0 0 0 -0.002,-0.091791 l -0.05273,-0.050778 C 15.701076,9.7533738 15.511697,9.6342087 15.263221,9.5179749 15.015247,9.4019755 14.710262,9.2873213 14.374608,9.1820597 13.875478,9.0255316 13.307191,8.8875563 12.743858,8.775836 Z m -0.398412,0.082026 c 1.633604,2.910294 1.611057,4.188766 1.501853,4.616882 -0.23473,-0.05251 -0.52848,-0.184604 -0.851505,-0.396458 -0.327667,-0.214901 -0.684979,-0.506398 -1.054618,-0.853459 -0.343247,-0.322282 -0.697109,-0.697082 -1.050712,-1.099536 l 0.0098,-0.01563 c 0.154921,-0.22527 0.364375,-0.553144 0.521449,-0.787058 0.350334,-0.5262455 0.6507,-1.0080979 0.923767,-1.464747 z m 0.505826,0.080073 c 0.513856,0.1058279 1.031691,0.2271846 1.484277,0.3691162 0.331545,0.1039733 0.63063,0.2156444 0.871035,0.3281032 0.231873,0.108467 0.402446,0.2229417 0.492156,0.3066204 C 15.489593,10.15084 14.972305,10.510455 13.753556,10.814764 13.540921,10.281765 13.241158,9.6523848 12.851272,8.937935 Z M 3.3968206,11.15068 a 0.06549971,0.06549971 0 0 0 -0.076167,0.04101 c -0.5076847,1.383629 -0.4431738,2.083021 -0.3573982,2.386561 a 0.06549971,0.06549971 0 0 0 0.076167,0.04492 l 0.076167,-0.01563 C 3.6932648,13.484009 4.583061,13.043207 5.9298556,11.601822 A 0.06549971,0.06549971 0 0 0 5.8868896,11.4905 C 4.8681665,11.41345 4.0515589,11.2937 3.3968206,11.15068 Z m 0.03906,0.136709 c 0.6140654,0.131298 1.3801183,0.238894 2.2967226,0.314433 -1.2622977,1.321654 -2.1085137,1.758382 -2.6345908,1.872922 -0.071278,-0.277869 -0.1142157,-0.919921 0.3378682,-2.187355 z m 3.2813282,0.05469 c 0.029357,0.0405 0.058945,0.08099 0.088012,0.120689 l 0.082743,-0.07273 z M 8.1928775,8.4060063 c -1.0901432,0.012509 -2.169017,0.095294 -3.2485785,0.2376873 0.2656864,0.4409177 0.6524899,1.0636624 0.9133333,1.4588034 3.6720408,5.526556 5.3896797,5.307401 5.4689327,5.294488 0.07925,-0.02583 0.157941,-0.06508 0.223985,-0.103824 L 13.835728,13.87283 C 12.356994,13.553785 10.080668,10.956007 8.4121197,8.4118029 Z M 11.339741,1.476689 c 0.319527,1.4743462 -0.894212,4.2784872 -2.6245825,6.903492 0.5912957,0.8919779 1.2562016,1.786914 1.9289095,2.578732 0.155379,-0.226373 0.357235,-0.542969 0.523862,-0.791592 3.672041,-5.5265559 2.773829,-6.9733209 2.734203,-7.0378837 -0.05284,-0.064556 -0.118941,-0.1162072 -0.184985,-0.1549447 z M 6.4162782,11.386856 C 4.8402524,13.177079 3.8026488,13.724589 3.1107811,13.87283 l 2.3637044,1.497804 c 0.066044,0.03874 0.1457863,0.07747 0.2250394,0.103296 0.039922,0 0.8195854,0.173522 2.6451357,-1.711247 C 7.7840271,13.17072 7.1421623,12.397207 6.4162782,11.386856 Z M 13.862606,5.7524374 c -0.271305,0.7349282 -0.697754,1.6482236 -1.353399,2.7768927 1.439702,0.2621097 3.000016,0.7130168 3.506294,1.2079388 V 7.0768505 c 0,-0.077475 -0.01314,-0.1675909 -0.02635,-0.2450667 -0.01054,-0.030898 -0.446614,-0.7014395 -2.126543,-1.0793464 z M 8.4732544,5.2486028 c -6.7496862,0 -7.48944433,1.4150581 -7.5290707,1.492533 C 0.9177665,6.8186108 0.9178324,6.8963405 0.9178324,6.9867285 V 9.7499182 C 1.5782715,9.104292 3.0178296,8.652662 4.7745971,8.3944111 5.910552,8.2394604 7.0468753,8.1490814 8.1960394,8.1361702 l 0.3509984,0.009 C 9.171226,7.190413 9.7244315,6.2137378 10.156043,5.2944947 9.6324365,5.2735261 8.9547187,5.2486378 8.4732543,5.2486378 Z M 5.6067686,1.476689 3.3084153,2.9101949 C 3.2423717,2.9489323 3.1767918,3.0005689 3.1239567,3.0651406 3.0996413,3.1007982 2.750807,3.6613841 3.3442531,5.381412 4.1357337,5.2212566 5.1627203,5.0903573 6.4958588,5.0246176 5.8296962,3.5635195 5.425626,2.3148664 5.6067686,1.476689 Z"
     class="ColorScheme-Text" />
</svg>
